<svg width="16" height="17" viewBox="0 0 16 17" fill="none" xmlns="http://www.w3.org/2000/svg">
<g clip-path="url(#clip0_678_12784)">
<path d="M9.97616 2.28693L9.43393 2.13828C9.36414 2.11501 9.29539 2.12233 9.22854 2.16018C9.16147 2.19806 9.11618 2.25493 9.0929 2.33069L5.83165 13.6183C5.80838 13.6941 5.81567 13.7655 5.85355 13.8325C5.89143 13.8995 5.94817 13.9447 6.02406 13.968L6.56613 14.1167C6.63608 14.1402 6.70458 14.1328 6.77162 14.0949C6.83868 14.0568 6.88389 14.0001 6.90713 13.9245L10.1685 2.63675C10.1917 2.56098 10.1845 2.48951 10.1465 2.42241C10.1086 2.35534 10.052 2.31017 9.97616 2.28693Z" fill="black"/>
<path d="M5.08867 4.49043C5.08867 4.41467 5.05948 4.34757 5.00121 4.28933L4.56399 3.85214C4.50571 3.79386 4.43865 3.76465 4.36288 3.76465C4.28712 3.76465 4.22002 3.79389 4.16178 3.85214L0.0874617 7.92646C0.0290926 7.98473 0 8.0518 0 8.12756C0 8.20333 0.0291845 8.27039 0.0874617 8.32864L4.16175 12.403C4.21999 12.4613 4.28697 12.4904 4.36285 12.4904C4.43874 12.4904 4.50571 12.4612 4.56396 12.403L5.00118 11.966C5.05945 11.9078 5.08864 11.8407 5.08864 11.7648C5.08864 11.6891 5.05945 11.6221 5.00118 11.5638L1.56509 8.12756L5.00121 4.69154C5.05958 4.63329 5.08867 4.5662 5.08867 4.49043Z" fill="black"/>
<path d="M15.913 7.92646L11.8386 3.85214C11.7804 3.79389 11.7133 3.76465 11.6376 3.76465C11.5618 3.76465 11.4949 3.79389 11.4364 3.85214L10.9994 4.2893C10.9412 4.34757 10.9121 4.41455 10.9121 4.4904C10.9121 4.56626 10.9411 4.63326 10.9994 4.69151L14.4356 8.12763L10.9994 11.5639C10.9412 11.6222 10.9121 11.6893 10.9121 11.7649C10.9121 11.8408 10.9411 11.9079 10.9994 11.9661L11.4364 12.403C11.4949 12.4614 11.5618 12.4904 11.6376 12.4904C11.7133 12.4904 11.7804 12.4613 11.8386 12.403L15.913 8.32876C15.9713 8.27052 16.0004 8.20333 16.0004 8.12756C16.0004 8.05177 15.9713 7.9847 15.913 7.92646Z" fill="black"/>
</g>
<defs>
<clipPath id="clip0_678_12784">
<rect width="16" height="16" fill="white" transform="translate(0 0.12793)"/>
</clipPath>
</defs>
</svg>
