<svg width="40" height="18" viewBox="0 0 40 18" fill="none" xmlns="http://www.w3.org/2000/svg">
<g clip-path="url(#clip0_678_12790)">
<path d="M8.98794 1.41797C10.049 1.39735 11.103 1.59327 12.0858 1.99378C13.0685 2.39429 13.9593 2.99097 14.7036 3.74736C15.4461 4.48071 16.0316 5.35749 16.4245 6.32428C17.1998 8.30386 17.1998 10.503 16.4245 12.4826C16.04 13.4383 15.4587 14.3024 14.7183 15.0187C13.9571 15.7835 13.0528 16.3911 12.0569 16.8065C11.0837 17.2127 10.0396 17.4215 8.9851 17.4209C7.93986 17.4226 6.90494 17.2137 5.94228 16.8065C3.98467 15.973 2.42573 14.414 1.59216 12.4564C0.78699 10.5048 0.78699 8.31374 1.59216 6.3621C2.00094 5.38032 2.60074 4.48955 3.35669 3.74153C4.08322 2.98533 4.95896 2.38836 5.92834 1.98838C6.89772 1.58839 7.93955 1.39413 8.98794 1.41797ZM9.01709 2.87384C8.1572 2.8551 7.30281 3.01552 6.50827 3.34487C5.71374 3.67421 4.99642 4.16536 4.40195 4.78694C3.78473 5.40438 3.29065 6.13361 2.94609 6.93577C2.61155 7.7216 2.43909 8.56678 2.43909 9.42084C2.43909 10.2749 2.61155 11.1202 2.94609 11.9061C3.63602 13.5088 4.91795 14.7835 6.52462 15.4643C7.3137 15.792 8.15967 15.9607 9.0141 15.9607C9.86854 15.9607 10.7146 15.792 11.5037 15.4643C12.316 15.1225 13.0553 14.6283 13.6817 14.0084C14.2948 13.4157 14.7778 12.7018 15.1002 11.9123C15.4225 11.1228 15.577 10.2749 15.5539 9.42241C15.5584 8.56005 15.3932 7.70518 15.0676 6.90663C14.742 6.11447 14.2608 5.39573 13.6526 4.79277C13.0523 4.17094 12.3312 3.67851 11.5334 3.346C10.7357 3.01349 9.87828 2.84789 9.0141 2.85934L9.01709 2.87384ZM8.91813 8.11497L7.84656 8.67116C7.76008 8.46514 7.61273 8.29036 7.4243 8.17028C7.28492 8.08347 7.12545 8.03439 6.96138 8.02767C6.24704 8.02767 5.88981 8.49934 5.88981 9.44274C5.87113 9.80516 5.96583 10.1645 6.16066 10.4707C6.25012 10.598 6.37056 10.7003 6.51069 10.7681C6.65082 10.8359 6.80599 10.8668 6.96138 10.8578C7.17813 10.8656 7.39161 10.8029 7.56961 10.6789C7.74761 10.555 7.88055 10.3766 7.9485 10.1707L8.93548 10.6716C8.75244 10.9965 8.49817 11.2757 8.19176 11.4883C7.88536 11.7009 7.53485 11.8414 7.1664 11.8991C6.79795 11.9568 6.42115 11.9303 6.0644 11.8216C5.70766 11.7129 5.38021 11.5248 5.10657 11.2714C4.67994 10.7604 4.44631 10.1157 4.44631 9.44999C4.44631 8.78429 4.67994 8.13975 5.10657 7.62873C5.32491 7.4074 5.58661 7.23348 5.87517 7.11776C6.16373 7.00203 6.47304 6.94696 6.78381 6.9561C7.77574 6.94057 8.48615 7.31817 8.91515 8.08881L8.91813 8.11497ZM13.5331 8.11497L12.4762 8.67116C12.3897 8.46514 12.2425 8.29036 12.0541 8.17028C11.9101 8.08192 11.7454 8.03281 11.5765 8.02767C10.8622 8.02767 10.5049 8.49934 10.5049 9.44274C10.4863 9.80516 10.581 10.1645 10.7758 10.4707C10.8653 10.598 10.9857 10.7003 11.1258 10.7681C11.2659 10.8359 11.4211 10.8668 11.5765 10.8578C11.7933 10.8656 12.0066 10.8029 12.1846 10.6789C12.3626 10.555 12.4957 10.3766 12.5636 10.1707L13.5623 10.6716C13.3567 11.0494 13.0554 11.3666 12.6887 11.5916C12.2268 11.8581 11.6919 11.9709 11.1617 11.9133C10.6314 11.8557 10.1332 11.6309 9.73919 11.2714C9.31469 10.7594 9.08235 10.1151 9.08235 9.44999C9.08235 8.7849 9.31469 8.14073 9.73919 7.62873C9.95787 7.40703 10.22 7.23292 10.5091 7.11719C10.7982 7.00145 11.108 6.94656 11.4193 6.9561C12.4073 6.94057 13.111 7.31817 13.5303 8.08881L13.5331 8.11497Z" fill="black"/>
</g>
<g clip-path="url(#clip1_678_12790)">
<path d="M28.3174 1.41735C29.3719 1.40607 30.418 1.60528 31.3945 2.00325C32.371 2.40122 33.2584 2.98997 34.0046 3.73508C34.7508 4.48018 35.3408 5.36662 35.7402 6.34256C36.1396 7.31851 36.3403 8.36434 36.3305 9.4188C36.3586 10.4617 36.1699 11.4992 35.7765 12.4655C35.3831 13.4318 34.7934 14.306 34.0448 15.0327C33.3003 15.7959 32.4091 16.4005 31.4248 16.8103C30.4405 17.2201 29.3836 17.4267 28.3174 17.4174C26.2016 17.4014 24.1773 16.5527 22.6825 15.0552C21.1877 13.5577 20.3427 11.5318 20.3305 9.41595C20.3196 8.358 20.523 7.30876 20.9283 6.33147C21.3337 5.35418 21.9326 4.46898 22.689 3.72925C23.4195 2.97989 24.2958 2.38822 25.2638 1.9906C26.2318 1.59297 27.2711 1.39784 28.3174 1.41735ZM28.3466 2.87322C27.4869 2.85625 26.633 3.01756 25.8388 3.3468C25.0445 3.67604 24.327 4.16616 23.7315 4.78632C23.1097 5.38905 22.6161 6.11099 22.2798 6.90899C21.9436 7.70698 21.7719 8.56453 21.7748 9.43046C21.7991 11.1632 22.5001 12.8177 23.7282 14.0403C24.9562 15.2629 26.6138 15.9566 28.3466 15.9732C29.2151 15.9789 30.0757 15.8085 30.8764 15.4722C31.6772 15.1359 32.4014 14.6406 33.0054 14.0164C33.6237 13.427 34.1113 12.7141 34.4364 11.9241C34.7614 11.134 34.9167 10.2844 34.8922 9.43046C34.8968 8.56811 34.7307 7.71341 34.4035 6.91553C34.0763 6.11764 33.5946 5.39235 32.9859 4.78148C32.3772 4.17062 31.6535 3.68619 30.8568 3.35618C30.0601 3.02618 29.206 2.85716 28.3436 2.85871L28.3466 2.87322ZM30.4896 7.4447V10.6913H29.5753V14.5785H27.0888V10.6913H26.1744V7.43006C26.1741 7.36227 26.1871 7.29514 26.2128 7.23243C26.2386 7.16973 26.2765 7.11274 26.3244 7.06481C26.3724 7.01688 26.4294 6.97897 26.4921 6.9532C26.5548 6.92744 26.622 6.91429 26.6898 6.91467H29.9742C30.041 6.91492 30.1071 6.92849 30.1686 6.95448C30.23 6.98048 30.2857 7.01838 30.3323 7.06609C30.3821 7.11257 30.4216 7.16902 30.4482 7.23172C30.4748 7.29442 30.4879 7.36197 30.4867 7.43006L30.4896 7.4447ZM27.2169 5.38601C27.2169 4.63284 27.5885 4.25629 28.3319 4.25629C29.0754 4.25629 29.4472 4.63284 29.4472 5.38601C29.4472 6.12948 29.0754 6.50123 28.3319 6.50123C27.5885 6.50123 27.2169 6.12572 27.2169 5.3745V5.38601Z" fill="black"/>
</g>
<defs>
<clipPath id="clip0_678_12790">
<rect width="16" height="16.0049" fill="white" transform="translate(0.988281 1.41602)"/>
</clipPath>
<clipPath id="clip1_678_12790">
<rect width="16" height="16.0017" fill="white" transform="translate(20.3301 1.41602)"/>
</clipPath>
</defs>
</svg>
