<svg width="20" height="20" version="1.1" id="Layer_1" xmlns="http://www.w3.org/2000/svg" xmlns:xlink="http://www.w3.org/1999/xlink" x="0px" y="0px"
	 viewBox="0 0 20 20" style="enable-background:new 0 0 20 20;" xml:space="preserve">
	<path class="st0" d="M14.2,0H5.8C2.6,0,0,2.7,0,5.9v8.4C0,17.4,2.6,20,5.8,20h8.4c3.2,0,5.8-2.6,5.8-5.8V5.9C20,2.7,17.4,0,14.2,0z
		 M18.4,14.2c0,2.3-1.9,4.2-4.2,4.2H5.8c-2.3,0-4.2-1.9-4.2-4.2V5.9c0-2.3,1.9-4.2,4.2-4.2h8.4c2.3,0,4.2,1.9,4.2,4.2V14.2z" fill="#00CFA3"/>
	<path class="st0" d="M10,4.7c-3,0-5.4,2.4-5.4,5.4c0,3,2.4,5.4,5.4,5.4s5.4-2.4,5.4-5.4C15.4,7.1,13,4.7,10,4.7z M10,13.9
		c-2.1,0-3.8-1.7-3.8-3.8c0-2.1,1.7-3.8,3.8-3.8c2.1,0,3.8,1.7,3.8,3.8C13.8,12.2,12.1,13.9,10,13.9z" fill="#00CFA3"/>
	<path class="st0" d="M16.2,4.6c0,0.4-0.4,0.8-0.8,0.8c-0.4,0-0.8-0.3-0.8-0.8s0.4-0.8,0.8-0.8C15.9,3.8,16.2,4.1,16.2,4.6z" fill="#00CFA3"/>
</svg>
