<svg width="309" height="208" viewBox="0 0 309 208" fill="none" xmlns="http://www.w3.org/2000/svg">
<g clip-path="url(#clip0_168_8635)">
<path opacity="0.5" d="M147.587 7.21705L110.651 44.0234L147.587 80.8298L184.523 44.0234L147.587 7.21705Z" fill="white"/>
<path d="M147.585 25.4884L128.985 44.0234L147.585 62.5585L166.186 44.0234L147.585 25.4884Z" stroke="black" stroke-width="4" stroke-miterlimit="10" stroke-linecap="round"/>
<path opacity="0.5" d="M86.1044 156.301L120.205 94.5879L154.305 156.301H86.1044Z" fill="white"/>
<path d="M105.114 144.296L120.204 116.992L135.295 144.296H105.114Z" stroke="black" stroke-width="4" stroke-miterlimit="10" stroke-linecap="round"/>
<path opacity="0.5" d="M185.746 115.505C192.815 115.505 198.546 109.795 198.546 102.75C198.546 95.7058 192.815 89.9951 185.746 89.9951C178.677 89.9951 172.946 95.7058 172.946 102.75C172.946 109.795 178.677 115.505 185.746 115.505Z" fill="white"/>
<path d="M185.744 128.184C199.84 128.184 211.267 116.797 211.267 102.75C211.267 88.7034 199.84 77.3164 185.744 77.3164C171.649 77.3164 160.222 88.7034 160.222 102.75C160.222 116.797 171.649 128.184 185.744 128.184Z" stroke="black" stroke-width="4" stroke-miterlimit="10" stroke-linecap="round"/>
<path d="M100.203 55.9727L118.148 49.8787C120.403 49.1128 122.125 47.5004 123.099 45.5118C124.067 43.5198 124.284 41.1582 123.512 38.8841C121.969 34.3407 117.068 31.8993 112.562 33.4294L54.8199 53.0379L59.3117 28.4527C60.0998 24.1566 57.3675 19.984 53.1288 19.0086C51.6297 18.6611 50.1178 18.7601 48.7419 19.2273C46.6634 19.9332 44.9021 21.4762 43.9602 23.6086L23.0563 71.6327C19.1854 78.9705 18.2225 87.8517 21.1131 96.3637C26.7142 112.858 44.6223 121.663 60.9553 115.857L99.5016 102.679C103.31 101.385 105.339 97.226 104.035 93.3862C102.731 89.5464 98.5886 87.4828 94.7804 88.776L101.399 86.5449L104.285 82.8407L104.617 77.4616L101.354 74.2098L96.7233 72.323L102.239 70.5549L106.215 67.8344L107.085 61.9079L104.354 58.1106L100.201 55.9677L100.203 55.9727Z" fill="white"/>
<path d="M77.1542 79.0735L102.244 70.5533C106.052 69.2601 108.081 65.1007 106.777 61.2609C105.473 57.4211 101.331 55.3575 97.5228 56.6507L73.0865 64.949" stroke="black" stroke-width="3" stroke-miterlimit="10"/>
<path d="M81.9739 93.2632L99.7225 87.2359C103.531 85.9427 105.56 81.7833 104.256 77.9435C102.952 74.1037 98.8095 72.0401 95.0013 73.3333L77.2527 79.3606" stroke="black" stroke-width="3" stroke-miterlimit="10"/>
<path d="M81.9309 93.1396L94.7804 88.776C98.5886 87.4828 102.731 89.5464 104.035 93.3862C105.339 97.226 103.31 101.385 99.5016 102.679L60.9553 115.857C44.6223 121.663 26.7142 112.858 21.1131 96.3637C18.2225 87.8517 19.1854 78.9705 23.0563 71.6327L43.9602 23.6086C44.9021 21.4762 46.6634 19.9332 48.7419 19.2273C50.1178 18.7601 51.6297 18.6611 53.1288 19.0086C57.3675 19.984 60.0998 24.1566 59.3117 28.4527L54.8199 53.0379L112.562 33.4294C117.068 31.8993 121.969 34.3407 123.512 38.8841C124.284 41.1582 124.067 43.5198 123.099 45.5118C122.125 47.5004 120.403 49.1128 118.148 49.8787L73.1523 65.1587" stroke="black" stroke-width="3" stroke-miterlimit="10"/>
<path d="M197.754 132.308L184.864 126.418C183.244 125.677 182.085 124.348 181.51 122.795C180.941 121.239 180.958 119.466 181.704 117.832C183.195 114.569 187.026 113.123 190.263 114.602L231.74 133.555L230.257 114.924C229.995 111.669 232.344 108.771 235.571 108.365C236.713 108.22 237.83 108.408 238.818 108.86C240.311 109.542 241.505 110.823 242.045 112.481L253.967 149.791C256.292 155.543 256.337 162.223 253.543 168.337C248.129 180.185 234.14 185.383 222.427 179.828L194.745 167.11C192.01 165.86 190.814 162.612 192.075 159.854C193.335 157.096 196.573 155.874 199.309 157.124L194.553 154.963L192.686 151.989L192.845 147.962L195.519 145.789L199.107 144.736L195.137 143.003L192.385 140.679L192.185 136.204L194.504 133.585L197.756 132.305L197.754 132.308Z" fill="white"/>
<path d="M213.156 151.237L195.134 143.001C192.398 141.751 191.203 138.503 192.463 135.745C193.724 132.987 196.962 131.765 199.697 133.015L217.25 141.036" stroke="black" stroke-width="3" stroke-miterlimit="10"/>
<path d="M208.498 161.43L195.749 155.604C193.013 154.354 191.818 151.106 193.078 148.348C194.339 145.59 197.577 144.367 200.312 145.617L213.062 151.443" stroke="black" stroke-width="3" stroke-miterlimit="10"/>
<path d="M208.539 161.341L199.309 157.124C196.573 155.874 193.335 157.096 192.075 159.854C190.814 162.612 192.01 165.86 194.745 167.11L222.427 179.828C234.14 185.383 248.129 180.185 253.543 168.337C256.337 162.223 256.292 155.543 253.967 149.791L242.045 112.481C241.505 110.823 240.311 109.542 238.818 108.86C237.83 108.408 236.713 108.22 235.571 108.365C232.344 108.771 229.995 111.669 230.257 114.924L231.74 133.555L190.263 114.602C187.026 113.123 183.195 114.569 181.704 117.832C180.958 119.466 180.941 121.239 181.51 122.795C182.085 124.348 183.244 125.677 184.864 126.418L217.185 141.187" stroke="black" stroke-width="3" stroke-miterlimit="10"/>
</g>
<defs>
<clipPath id="clip0_168_8635">
<rect width="308" height="207" fill="white" transform="translate(0.494995 0.5)"/>
</clipPath>
</defs>
</svg>
