<svg width="20" height="20" viewBox="0 0 18 14" fill="none" xmlns="http://www.w3.org/2000/svg">
<path d="M17.3839 1.72316C16.7468 2.00572 16.071 2.19111 15.3789 2.27316C16.1076 1.83624 16.653 1.14976 16.9139 0.341162C16.2286 0.746575 15.4792 1.03233 14.6979 1.18616C14.1716 0.625307 13.475 0.25377 12.7161 0.129169C11.9571 0.00456848 11.1782 0.133867 10.5003 0.497014C9.82228 0.86016 9.28307 1.43686 8.96624 2.13768C8.64941 2.8385 8.57267 3.62428 8.74792 4.37316C7.35976 4.3035 6.00176 3.94273 4.76205 3.31426C3.52235 2.68579 2.42864 1.80368 1.55192 0.725162C1.10672 1.49405 0.970592 2.40347 1.17115 3.26901C1.3717 4.13456 1.89393 4.89144 2.63192 5.38616C2.07762 5.36859 1.53556 5.21876 1.05092 4.94916V4.99316C1.05105 5.79917 1.32992 6.58033 1.84024 7.2042C2.35056 7.82807 3.06094 8.25625 3.85092 8.41616C3.55098 8.49725 3.24163 8.53828 2.93092 8.53816C2.71045 8.53835 2.49046 8.51759 2.27392 8.47616C2.49763 9.16912 2.93191 9.77505 3.51625 10.2095C4.10059 10.644 4.8059 10.8854 5.53392 10.9002C4.29803 11.8709 2.77145 12.3975 1.19992 12.3952C0.921874 12.3959 0.644037 12.3799 0.36792 12.3472C1.96405 13.3737 3.8222 13.9184 5.71992 13.9162C7.02657 13.9251 8.32198 13.6743 9.53093 13.1785C10.7399 12.6826 11.8383 11.9516 12.7624 11.0278C13.6865 10.1039 14.4179 9.00575 14.9141 7.79695C15.4103 6.58815 15.6614 5.29282 15.6529 3.98616C15.6529 3.83416 15.6496 3.6835 15.6429 3.53416C16.3262 3.04023 16.9157 2.4283 17.3839 1.72716" fill="#00CFA3"/>
</svg>
