<svg width="278" height="79" viewBox="0 0 278 79" fill="none" xmlns="http://www.w3.org/2000/svg">
<g clip-path="url(#clip0_413_6724)">
<path d="M79.6777 24.7227C79.6777 18.9889 83.2604 15.1924 88.5112 15.1924C93.762 15.1924 97.3448 18.9889 97.3448 24.7227C97.3448 30.4566 93.762 34.2261 88.5112 34.2261C83.2604 34.2261 79.6777 30.4295 79.6777 24.7227ZM94.0299 24.7227C94.0299 20.77 91.8809 18.3101 88.5112 18.3101C85.1416 18.3101 82.9926 20.746 82.9926 24.7227C82.9926 28.6995 85.1416 31.1114 88.5112 31.1114C91.8809 31.1114 94.0299 28.6514 94.0299 24.7227Z" fill="black"/>
<path d="M112.735 27.3931C112.735 31.6071 110.428 34.0941 107.216 34.0941C105.731 34.0941 104.273 33.4933 103.448 32.5232V39.1731H100.264V20.9264H103.448V22.2089C104.349 21.1096 105.81 20.665 107.216 20.665C110.772 20.665 112.735 23.5184 112.735 27.3931ZM109.551 27.366C109.551 24.828 108.571 23.4133 106.446 23.4133C104.139 23.4133 103.156 25.0623 103.156 27.366C103.156 29.6698 104.136 31.3458 106.419 31.3458C108.54 31.3458 109.548 29.88 109.548 27.366H109.551Z" fill="black"/>
<path d="M126.505 28.4143H117.537C117.671 30.1173 118.731 31.2406 120.801 31.2406C121.966 31.2406 123.029 30.8742 123.933 29.853L126.134 31.7633C124.7 33.3341 122.977 34.0941 120.773 34.0941C116.262 34.0941 114.354 30.9012 114.354 27.4441C114.354 23.987 116.21 20.665 120.563 20.665C124.621 20.665 126.584 23.6236 126.584 27.2098C126.584 27.6033 126.557 27.9968 126.505 28.4143ZM123.534 25.9273C123.482 24.2783 122.207 23.2842 120.536 23.2842C118.6 23.2842 117.696 24.6448 117.51 25.9273H123.534Z" fill="black"/>
<path d="M140.964 25.5068V33.8327H137.78V26.2937C137.78 25.4047 137.78 23.4133 135.366 23.4133C132.395 23.4133 132.395 26.3718 132.395 28.6756V33.8327H129.211V20.9264H132.395V22.4191C133.323 21.1877 134.757 20.665 136.349 20.665C139.292 20.665 140.967 22.4462 140.967 25.5068H140.964Z" fill="black"/>
<path d="M163.622 33.8326L158.155 24.7498L154.627 28.285V33.8356H151.312V15.5889H154.627V24.1761L162.931 15.5889H167.281L160.411 22.5001L167.467 33.8356H163.619L163.622 33.8326Z" fill="black"/>
<path d="M180.948 25.5068V33.8327H177.764V26.2937C177.764 25.4047 177.764 23.4133 175.35 23.4133C172.379 23.4133 172.379 26.3718 172.379 28.6756V33.8327H169.195V20.9264H172.379V22.4191C173.308 21.1877 174.741 20.665 176.333 20.665C179.277 20.665 180.951 22.4462 180.951 25.5068H180.948Z" fill="black"/>
<path d="M183.201 27.366C183.201 23.7017 185.694 20.665 189.755 20.665C193.815 20.665 196.308 23.7017 196.308 27.366C196.308 31.0304 193.788 34.0941 189.755 34.0941C185.722 34.0941 183.201 31.0064 183.201 27.366ZM193.124 27.366C193.124 25.2455 192.169 23.4133 189.755 23.4133C187.341 23.4133 186.385 25.2455 186.385 27.366C186.385 29.4866 187.341 31.3458 189.755 31.3458C192.169 31.3458 193.124 29.4595 193.124 27.366Z" fill="black"/>
<path d="M196.76 20.9258H200.157L202.385 29.0144L204.854 20.9258H207.587L210.056 28.9874L212.311 20.9258H215.708L211.675 33.8322H208.811L206.236 25.3771L203.663 33.8322H200.799L196.766 20.9258H196.76Z" fill="black"/>
<path d="M217.535 30.742V15.5859H220.719V30.5348C220.719 31.1114 221.063 31.3457 221.648 31.3457C221.94 31.3457 222.284 31.2947 222.655 31.1895V33.7035C221.94 33.9649 221.221 34.097 220.613 34.097C218.835 34.097 217.535 33.0488 217.535 30.745V30.742Z" fill="black"/>
<path d="M236.105 28.4143H227.137C227.271 30.1173 228.33 31.2406 230.4 31.2406C231.566 31.2406 232.628 30.8742 233.532 29.853L235.733 31.7633C234.299 33.3341 232.577 34.0941 230.373 34.0941C225.862 34.0941 223.953 30.9012 223.953 27.4441C223.953 23.987 225.81 20.665 230.163 20.665C234.22 20.665 236.184 23.6236 236.184 27.2098C236.184 27.6033 236.156 27.9968 236.105 28.4143ZM233.134 25.9273C233.082 24.2783 231.806 23.2842 230.135 23.2842C228.199 23.2842 227.295 24.6448 227.11 25.9273H233.134Z" fill="black"/>
<path d="M250.276 15.5859V33.8327H247.092V32.5502C246.191 33.6495 244.73 34.094 243.323 34.094C239.768 34.094 237.805 31.2406 237.805 27.366C237.805 23.152 240.112 20.665 243.323 20.665C244.809 20.665 246.267 21.2657 247.092 22.2359V15.5859H250.276ZM247.384 27.393C247.384 25.2455 246.404 23.5184 244.121 23.5184C241.999 23.5184 240.989 24.9841 240.989 27.393C240.989 29.8019 241.969 31.1895 244.093 31.1895C246.401 31.1895 247.384 29.5406 247.384 27.393Z" fill="black"/>
<path d="M265.105 35.5867C265.105 38.2839 262.612 39.4343 259.081 39.4343C255.181 39.4343 252.953 38.0196 252.953 35.3494C252.953 35.034 252.981 34.9049 253.005 34.7727L254.889 33.5953C253.961 33.0967 253.324 32.2858 253.324 30.9522C253.324 29.8258 253.775 29.0149 254.545 28.3601C253.882 27.5491 253.483 26.5279 253.483 25.4016C253.483 22.5992 255.924 20.6619 258.843 20.6619C259.985 20.6619 261.044 20.9503 261.921 21.4729L263.911 19.7969L265.582 21.7852L263.698 23.3051C264.042 23.9598 264.255 24.7197 264.255 25.5577C264.255 28.4382 261.814 30.2704 258.95 30.2704C258.049 30.2704 257.199 30.0871 256.429 29.7718C256.192 29.928 256.058 30.1382 256.058 30.4536C256.058 31.3967 257.385 31.658 259.029 31.8683C261.683 32.2077 265.105 32.496 265.105 35.5867ZM261.921 35.875C261.921 34.8809 260.249 34.7757 258.365 34.5144L257.279 34.3582L256.137 35.4305C256.11 35.5086 256.11 35.5867 256.11 35.6408C256.11 36.7401 257.729 37.0795 259.215 37.0795C260.566 37.0795 261.921 36.7641 261.921 35.875ZM256.667 25.4827C256.667 26.7141 257.409 27.7083 258.895 27.7083C260.38 27.7083 261.071 26.7412 261.071 25.4827C261.071 24.1461 260.249 23.284 258.895 23.284C257.54 23.284 256.667 24.1731 256.667 25.4827Z" fill="black"/>
<path d="M277.92 28.4143H268.953C269.087 30.1173 270.146 31.2406 272.216 31.2406C273.382 31.2406 274.444 30.8742 275.345 29.853L277.546 31.7633C276.112 33.3341 274.389 34.0941 272.185 34.0941C267.674 34.0941 265.766 30.9012 265.766 27.4441C265.766 23.987 267.622 20.665 271.975 20.665C276.033 20.665 277.999 23.6236 277.999 27.2098C277.999 27.6033 277.972 27.9968 277.92 28.4143ZM274.949 25.9273C274.897 24.2783 273.622 23.2842 271.951 23.2842C270.015 23.2842 269.111 24.6448 268.925 25.9273H274.949Z" fill="black"/>
<path d="M80.9766 42.3174H87.4236C91.1129 42.3174 93.2863 44.0444 93.2863 46.9249C93.2863 48.6279 92.5435 49.9885 91.2438 50.7214C93.2345 51.4272 94.2695 52.9471 94.2695 55.2238C94.2695 58.5758 92.0139 60.5641 88.2455 60.5641H80.9766V42.3174ZM87.4236 49.568C89.0947 49.568 89.9714 48.8622 89.9714 47.4986C89.9714 46.1349 89.043 45.327 87.4236 45.327H84.2914V49.568H87.4236ZM87.9807 57.5515C89.8375 57.5515 90.9516 56.5574 90.9516 54.9595C90.9516 53.3616 89.9166 52.5776 87.9807 52.5776H84.2914V57.5515H87.9807Z" fill="black"/>
<path d="M106.342 48.1293L104.804 50.9046C104.354 50.6163 103.849 50.4601 103.212 50.4601C101.276 50.4601 100.321 51.6375 100.321 54.0734V60.5671H97.1367V47.6607H100.348V49.8593C100.905 48.2614 102.363 47.3994 103.849 47.3994C104.725 47.3994 105.492 47.6097 106.342 48.1323V48.1293Z" fill="black"/>
<path d="M118.704 52.4215V60.5642H115.785L115.52 58.8882C114.75 60.0926 113.264 60.8255 111.541 60.8255C108.784 60.8255 106.82 59.0714 106.82 56.6115C106.82 55.0917 107.511 53.9413 108.784 53.3646C109.66 52.9711 110.774 52.7879 112.26 52.7879H115.523V52.4215C115.523 51.0068 114.567 50.1448 113.054 50.1448C111.727 50.1448 110.482 50.8266 109.526 52.0821L107.219 50.1718C108.784 48.3126 110.72 47.3965 113.109 47.3965C116.558 47.3965 118.707 49.3068 118.707 52.4215H118.704ZM115.52 55.1427H112.68C111.593 55.1427 110.954 55.2749 110.531 55.5873C110.187 55.8215 110.001 56.188 110.001 56.6595C110.001 57.5756 110.771 58.1523 112.044 58.1523C113.955 58.1523 115.52 56.8187 115.52 55.1427Z" fill="black"/>
<path d="M120.672 57.2123L123.22 56.0859C123.564 57.029 124.255 58.2064 126.005 58.2064C127.49 58.2064 128.126 57.3684 128.126 56.6866C128.126 54.515 121.387 55.9538 121.387 51.163C121.387 48.6761 123.67 47.3936 126.191 47.3936C128.446 47.3936 130.169 48.4418 131.152 50.1959L128.684 51.5295C128.233 50.7185 127.518 49.8805 126.084 49.8805C125.049 49.8805 124.413 50.3791 124.413 50.9798C124.413 52.9442 131.259 51.7908 131.259 56.5034C131.259 59.513 128.632 60.8226 126.166 60.8226C123.408 60.8226 121.311 59.1736 120.675 57.2093L120.672 57.2123Z" fill="black"/>
<path d="M133.854 42.3174H137.196V45.2218H133.854V42.3174ZM133.933 47.6577H137.117V60.5641H133.933V47.6577Z" fill="black"/>
<path d="M140.699 57.4735V42.3174H143.883V57.2662C143.883 57.8429 144.227 58.0772 144.812 58.0772C145.104 58.0772 145.448 58.0261 145.819 57.921V60.435C145.104 60.6963 144.385 60.8285 143.777 60.8285C141.999 60.8285 140.699 59.7802 140.699 57.4765V57.4735Z" fill="black"/>
<path d="M44.8698 3.03041V23.4938C41.6645 22.5387 38.2157 22.5387 35.0104 23.5238V3.03041H44.8698ZM50.0292 22.3284L62.482 10.1879L69.4709 16.9881L57.0486 29.1285L54.6682 31.4263C53.1127 28.5038 50.6685 26.146 47.7098 24.5961L50.0292 22.3284ZM39.9264 25.7285C46.6109 25.7285 52.3183 30.4711 53.3258 36.9438L59.155 31.246L73.7446 16.9881L62.4516 5.95289L47.862 20.2109V0.0478516H31.8965V28.2665C34.2464 26.6265 37.056 25.7315 39.9234 25.7315" fill="black"/>
<path d="M62.4817 67.9383L50.0594 55.7678L47.7095 53.47C50.7017 51.9502 53.1125 49.5624 54.6984 46.6399L57.0483 48.9376L69.4706 61.0781L62.4817 67.9383ZM44.8695 57.8553V75.0658H35.0102V54.6024C38.2154 55.5876 41.6642 55.5876 44.8695 54.6324V57.8553ZM53.356 41.1523C52.1962 48.4 45.2074 53.3529 37.7893 52.1875C35.6829 51.8601 33.6678 51.0552 31.9297 49.8297V78.0483H47.8952V57.8553L62.4848 72.1133L73.7778 61.0781L59.1882 46.8201L53.359 41.1523H53.356Z" fill="black"/>
<path d="M6.04527 16.9913L20.6349 31.2493H0V46.8499H20.6349L6.04527 61.1079L17.3383 72.143L28.8779 60.8676V46.8769C25.3986 42.2244 25.3986 35.8988 28.8779 31.2162V17.2556L17.3078 5.95312L6.04527 16.9913Z" fill="black"/>
</g>
<defs>
<clipPath id="clip0_413_6724">
<rect width="278" height="78" fill="white" transform="translate(0 0.0478516)"/>
</clipPath>
</defs>
</svg>
