<?xml version="1.0" encoding="utf-8"?>
<!-- Generator: Adobe Illustrator 23.0.1, SVG Export Plug-In . SVG Version: 6.00 Build 0)  -->
<svg version="1.1" id="Layer_1" xmlns="http://www.w3.org/2000/svg" xmlns:xlink="http://www.w3.org/1999/xlink" x="0px" y="0px"
	 viewBox="0 0 226 52" style="enable-background:new 0 0 226 52;" xml:space="preserve">
<style type="text/css">
	.st0{fill:#00CFA3;}
</style>
<path class="st0" d="M32.3,19.7c1.3,1.3,2.2,3,2.5,4.9l3.8-3.8l9.5-9.5l-7.4-7.4l-9.5,9.5V0H20.8v18.8
	C24.3,16.3,29.2,16.6,32.3,19.7z"/>
<path class="st0" d="M34.8,27.4c-0.8,4.8-5.3,8.1-10.1,7.4c-1.4-0.2-2.7-0.8-3.8-1.6V52h10.4V38.5l9.5,9.5l7.4-7.4l-9.5-9.5
	L34.8,27.4z"/>
<path d="M40.7,45.3l-8.1-8.1l-1.5-1.5c1.9-1,3.5-2.6,4.6-4.6l1.6,1.6l8.1,8.1L40.7,45.3z M29.2,38.6V50h-6.4V36.4
	c2.1,0.6,4.3,0.6,6.4,0L29.2,38.6z M18.8,37.7l-7.5,7.5l-4.6-4.6l8.1-8.1l1.5-1.5c0.5,1,1.2,1.8,1.9,2.6c0.2,0.2,0.3,0.3,0.5,0.5
	L18.8,37.7z M2,29.2v-6.4h13.6c-0.6,2.1-0.6,4.3,0,6.4H2z M6.8,11.3l4.5-4.6l7.5,7.5v3.6c-0.2,0.2-0.3,0.3-0.5,0.5
	c-0.8,0.8-1.4,1.7-1.9,2.6l-1.5-1.5L6.8,11.3z M29.2,2v13.6c-2.1-0.6-4.3-0.6-6.4,0V2H29.2z M32.6,14.9l8.1-8.1l4.6,4.6l-8.1,8.1
	L35.6,21c-0.5-1-1.2-1.8-1.9-2.6c-0.8-0.8-1.7-1.4-2.6-1.9L32.6,14.9z M34.8,27.4c-0.8,4.8-5.3,8.1-10.2,7.4
	c-4.8-0.8-8.1-5.3-7.4-10.2c0.3-1.8,1.2-3.6,2.5-4.9c0.3-0.3,0.7-0.6,1.1-0.9c4-2.9,9.5-2,12.4,1.9c0.8,1.1,1.4,2.4,1.6,3.8l3.8-3.8
	l9.5-9.5l-7.4-7.4l-9.5,9.5V0H20.8v13.4l-9.5-9.5l-7.4,7.4l9.5,9.5H0v10.4h13.4l-9.5,9.5l7.4,7.4l9.5-9.5V52h10.4V38.6l9.5,9.5
	l7.4-7.4l-9.5-9.5L34.8,27.4z"/>
<path d="M82.7,32.8c-3.5,0-5.9-2.6-5.9-6.5c0-3.9,2.4-6.5,5.9-6.5c3.6,0,6,2.6,6,6.5C88.7,30.2,86.3,32.8,82.7,32.8z M78.9,26.2
	c0,2.8,1.5,4.5,3.9,4.5c2.4,0,3.9-1.8,3.9-4.5c0-2.8-1.5-4.6-3.9-4.6C80.4,21.7,78.9,23.4,78.9,26.2z M90.7,32.5V20h3.6
	c4.1,0,6.5,2.3,6.5,6.4c0,4-2.3,6.2-6.5,6.2H90.7z M92.8,30.6h1.3c2.9,0,4.6-1.1,4.6-4.3c0-3.2-1.7-4.4-4.5-4.4h-1.5V30.6z
	 M102.9,32.5V20h2.1v12.5H102.9z M117.7,32.8c-3.5,0-5.9-2.6-5.9-6.5c0-3.9,2.4-6.5,5.9-6.5c2.6,0,4.6,1.4,5.4,3.7l-2,0.7
	c-0.6-1.5-1.8-2.4-3.5-2.4c-2.3,0-3.9,1.7-3.9,4.5c0,2.8,1.5,4.6,3.9,4.6c1.7,0,2.9-0.9,3.5-2.4l2,0.7
	C122.2,31.4,120.3,32.8,117.7,32.8z M124.8,32.5v-8.9h2v8.9H124.8z M124.7,22.2V20h2.2v2.2H124.7z M132.6,32.7c-2.4,0-3.9-2-3.9-4.6
	c0-2.9,1.7-4.6,3.9-4.6c1.1,0,2.1,0.5,2.6,1.4V20h2v12.5h-2v-1.2C134.7,32.3,133.7,32.7,132.6,32.7z M130.8,28.1
	c0,1.7,0.9,2.8,2.3,2.8c1.4,0,2.3-1.1,2.3-2.8c0-1.7-0.9-2.8-2.3-2.8C131.7,25.3,130.8,26.4,130.8,28.1z M145.3,32.5l-0.1-1.1
	c-0.6,0.9-1.6,1.3-2.6,1.3c-2,0-3.4-1.1-3.4-2.9c0-1,0.4-1.7,1.1-2.1c0.6-0.4,1.4-0.5,2.2-0.5h2.6v-0.3c0-1.1-0.7-1.7-2-1.7
	c-0.9,0-1.6,0.3-2.4,1.2l-1.4-1.2c1-1.2,2.5-1.7,4-1.7c2.4,0,3.8,1.3,3.8,3.4v5.6H145.3z M141.2,29.8c0,0.8,0.6,1.3,1.6,1.3
	c1.3,0,2.4-0.9,2.4-2.2v-0.2h-2.3c-0.4,0-0.9,0.1-1.2,0.3C141.3,29.1,141.2,29.4,141.2,29.8z M152.9,32.7c-2.4,0-3.9-2-3.9-4.6
	c0-2.9,1.7-4.6,3.9-4.6c1.1,0,2.1,0.5,2.6,1.4V20h2v12.5h-2v-1.2C154.9,32.3,153.9,32.7,152.9,32.7z M151,28.1
	c0,1.7,0.9,2.8,2.3,2.8c1.4,0,2.3-1.1,2.3-2.8c0-1.7-0.9-2.8-2.3-2.8C151.9,25.3,151,26.4,151,28.1z M163.7,32.7
	c-3,0-4.3-2.2-4.3-4.5c0-2.4,1.3-4.7,4.2-4.7c2.8,0,4.1,2,4.1,4.4c0,0.2,0,0.5-0.1,0.8h-6.2c0.1,1.3,0.9,2.1,2.3,2.1
	c0.9,0,1.6-0.3,2.2-1l1.4,1.2C166.4,32.1,165.2,32.7,163.7,32.7z M161.4,27.2h4.3v-0.1c0-1.1-0.8-2-2.1-2
	C162.2,25.1,161.5,26.1,161.4,27.2z M172.6,32.7c-1.9,0-3.2-1-3.8-1.9l1.4-1.2c0.4,0.8,1.2,1.4,2.4,1.4c1,0,1.6-0.4,1.6-1.1
	c0-0.8-0.9-1-1.9-1.3c-1.4-0.4-3-0.9-3-2.6c0-1.6,1.3-2.6,3.2-2.6c1.4,0,2.6,0.6,3.3,1.6l-1.4,0.9c-0.4-0.7-1.2-1.1-2-1.1
	c-0.7,0-1.3,0.3-1.3,0.9c0,0.5,0.5,0.8,1.7,1c1.4,0.4,3.3,0.8,3.3,2.8C176.1,31.5,174.7,32.7,172.6,32.7z M182.3,31
	c2-1.5,6.1-4.1,6.1-7.1c0-1.2-0.6-2.1-2-2.1c-1.6,0-2.2,1.3-2.2,2.7l-2-0.2c0-2.3,1.5-4.5,4.3-4.5c2.3,0,3.9,1.6,3.9,3.9
	c0,2.8-2.2,5.2-5,6.9h5.5v1.9h-8.6V31z M196.7,32.7c-3.8,0-4.3-3.7-4.3-6.5c0-2.6,0.5-6.4,4.3-6.4c3.7,0,4.3,3.6,4.3,6.4
	C200.9,29.1,200.3,32.7,196.7,32.7z M194.4,26.2c0,2.4,0.4,4.5,2.2,4.5c1.8,0,2.2-2,2.2-4.5c0-2.6-0.5-4.6-2.2-4.6
	C194.8,21.7,194.4,23.8,194.4,26.2z M202.5,31c2-1.5,6.1-4.1,6.1-7.1c0-1.2-0.6-2.1-2-2.1c-1.6,0-2.2,1.3-2.2,2.7l-2-0.2
	c0-2.3,1.5-4.5,4.3-4.5c2.3,0,3.9,1.6,3.9,3.9c0,2.8-2.2,5.2-5,6.9h5.5v1.9h-8.6V31z M216.7,32.7c-2.8,0-4.6-1.6-4.6-4.1l2-0.1
	c0,1.4,1.1,2.3,2.7,2.3c1.6,0,2.5-0.8,2.5-2c0-1.5-1.3-2-3.3-2v-1.6c1.4,0,2.5-0.5,2.5-1.8c0-1-0.7-1.7-1.9-1.7
	c-1.3,0-2,0.8-2.1,1.9l-2-0.1c0-2.1,1.7-3.7,4.1-3.7c2.2,0,3.8,1.4,3.8,3.4c0,1.3-0.7,2.1-1.8,2.5c1.4,0.4,2.5,1.4,2.5,3
	C221.3,31.1,219.4,32.7,216.7,32.7z"/>
</svg>
