<svg width="478" height="378" viewBox="0 0 478 378" fill="none" xmlns="http://www.w3.org/2000/svg">
<path d="M79.0711 335.898H81.1177L82.9594 340.29L89.5081 341.078L95.852 348.285L93.1916 349.974L90.429 347.272L82.4479 351.213L77.8433 352.001L72.3182 348.51L69.2483 350.537L66.9973 354.14L65.5649 349.186L70.2716 340.402L72.9321 342.767L74.3644 339.952L77.2294 338.826L79.0711 335.898ZM131.665 331.844L143.227 330.605L154.38 327.34L157.654 330.605H151.617L133.813 332.407L121.33 334.209L112.837 336.011L109.256 338.038L106.494 336.799L107.619 333.758L110.689 329.817L113.758 330.38L120.307 333.195L122.353 331.619H126.651L131.665 331.844ZM123.377 312.025L119.898 316.867V312.701L123.377 312.025ZM207.996 290.291L207.28 294.233L207.996 297.498L202.573 296.372L199.913 298.737L196.639 295.471L197.764 293.444L202.164 291.643L205.848 293.219L207.996 290.291ZM477 77.7988V86.2445L474.34 90.7487L472.805 91.5371L469.326 98.6315L464.312 105.05L463.8 111.581L466.972 119.464L470.963 121.942L469.428 133.202V141.873L475.158 170.363V175.205L473.624 179.372L471.066 181.624L457.252 190.182L452.034 194.574L439.96 200.204L417.142 207.299L410.696 209.664L394.324 217.659L385.729 223.74L378.464 230.496V234.1L373.246 237.703L368.335 242.433L367.209 246.599L363.73 248.288L358.716 255.495H354.93L351.042 265.855V272.837L351.758 278.805L353.089 282.634L355.749 284.211L358.921 288.94L363.935 287.138L364.958 290.404H361.172L359.126 294.12L354.214 297.836L352.27 302.566V306.282L347.563 308.872L346.642 312.475L347.256 315.628L350.019 317.655L348.689 319.682L343.061 317.318L323.415 315.065L308.783 314.165H281.156H274.096L268.366 315.741L265.91 317.205H262.227L243.502 318.894L240.126 319.907L233.679 319.232H224.061L220.378 316.867H216.284L218.024 311.237L215.261 309.773L213.317 306.395L216.489 303.692L217.717 299.075L221.707 295.021L219.763 292.994L221.81 289.503L225.801 286.688L226.312 283.422L225.289 278.918L219.252 277.229L215.466 279.819L214.647 281.958H209.941L204.824 283.985L196.332 290.742V296.147L199.811 300.651L203.904 308.759L205.643 307.971L208.917 309.885V314.277L211.373 316.529L207.383 319.682L206.564 322.047H203.085L200.015 324.074H196.127L194.899 325.763H184.667L176.891 327.002L169.421 329.479L167.989 330.943L161.645 331.731L154.278 325.2L151.004 324.299L148.036 321.259L144.148 320.471L138.52 315.516L132.79 311.912L128.902 314.052L126.549 313.038L124.604 309.998L122.763 312.475L119.386 314.052L114.577 313.376L107.721 315.741L104.856 318.781L102.708 315.516L99.5355 317.092L98.5125 322.948L92.6801 328.691L84.0851 329.704L79.9923 332.182L78.8666 330.38L80.5038 326.213L76.104 324.299L72.5227 327.903L70.2716 325.313L66.5882 328.128L64.4392 326.664L65.4625 323.511L70.2716 321.484L69.6577 314.727L66.5882 312.588L63.4159 314.953V318.556L58.4023 317.092L56.5606 320.471L57.4814 323.624L55.0258 325.763L50.9327 324.862L49.5003 327.002L44.4867 328.015L38.8588 331.844L34.1521 330.493L26.8874 332.745L25.0453 336.011L24.0224 341.641V346.033L22.6921 351.1L20.9525 353.352L24.1245 357.856L29.1384 351.776L32.4125 352.564L27.5013 358.194L31.901 358.983L30.5708 364.275L37.2216 357.856H39.6776L38.1425 363.037L45.6121 364.388L41.0078 367.991L40.2915 371.707L37.4265 375.874H35.7893L30.8777 371.707L25.4547 374.185L23.4085 373.059L20.5435 377L14.0972 372.721L12.9715 366.978L8.46928 365.964V362.924L4.99038 359.658H3.3532L1 356.28L2.73929 350.199L8.87865 346.933V344.231L10.7204 340.064L9.69709 336.574L11.7436 330.38L12.9715 320.696H16.2458L18.9063 315.403L22.4873 312.926H25.6595L31.4916 310.336L35.3799 306.057H41.7238L47.8632 300.764L50.3188 299.976L52.4678 305.606L56.5606 303.354L57.7884 300.651L62.802 301.778L70.681 299.075L73.239 297.386H76.6155L77.4343 294.12L79.9923 291.981L77.8433 288.49L81.5271 283.535L88.0755 279.03L89.5081 275.54L86.7453 269.684L79.276 265.18L70.2716 263.603L62.6999 260.338L59.8349 264.054H56.9699L52.6723 266.531L50.8306 265.855L47.1468 270.022L44.6912 268.558L42.8495 265.292L38.2449 267.77L36.7101 265.743L30.9802 264.166V257.748H26.7849L25.1478 253.581L21.4643 251.892L20.441 244.572L17.7806 238.942L16.1434 237.59L9.59498 236.239L11.5391 233.537L21.7713 230.947L27.8082 231.622L31.6965 226.105L35.7893 224.303L39.2682 225.541L43.361 224.303L47.4538 221.488L55.0258 213.943L59.7325 215.069L64.0302 214.055L69.2483 215.181L72.3182 212.704H75.7971V216.195H78.5596L86.1313 211.015H88.5873L95.0336 203.245L103.322 200.204L107.619 200.768L112.94 198.741L120.409 194.687L121.739 192.885H126.549L134.427 188.155L139.953 192.435L141.897 190.52L150.287 187.93L153.357 190.52L156.836 186.692L160.008 191.196L164.919 189.056H172.286L174.333 188.268L184.053 181.399V180.048H189.988L191.727 181.962L197.457 180.611L201.55 183.764L203.904 184.327L207.894 182.075L209.736 183.651H212.806L212.294 187.705L209.838 190.182L211.168 194.349L215.568 191.309L219.252 192.772L224.368 188.831L223.652 185.79L227.437 183.876L229.177 184.552L232.247 181.512L239.512 178.02L242.786 173.516L254.246 169.237L266.729 161.917L275.222 158.652L276.859 157.075L296.607 147.166L301.826 145.026L306.43 142.099L309.397 142.774L312.672 140.297L317.174 138.607L316.662 132.977L313.285 128.923L308.681 129.712L305.611 127.685V123.631L308.681 118.225L310.932 116.649L314.309 110.005L315.741 110.681L319.118 104.149L314.923 100.771L316.969 96.2668V94.2399L321.88 92.776L320.243 90.5236L322.904 87.4833L321.88 80.5017L323.006 75.4341L327.713 70.8171L326.178 66.7634L327.099 64.0606L325.462 60.5697L328.634 55.5025L330.885 49.4216H333.75L336.103 44.5795L340.503 38.048L336.922 36.4716L333.647 33.7688L332.42 31.0663L333.954 29.0394L340.298 26.1115L346.131 24.3097H350.735L354.828 22.8458L355.544 18.0037L359.637 11.6976V5.50428H362.502L366.186 1H368.948L373.144 6.29228L377.441 5.72937L382.557 8.6573V15.5263H385.831L384.092 19.0171L384.604 22.9585L383.171 26.2242L385.218 27.6882L386.036 32.9808L384.604 35.6833L385.32 41.0886L382.966 49.0838L385.115 50.9979L391.664 52.2368L392.789 54.7142L400.77 55.8403L401.998 58.6556L409.161 61.2453L413.254 60.1195L414.993 63.2726L419.495 65.2994L421.746 63.0471H425.123L433.923 65.074L435.457 67.3263L439.346 68.4525L443.029 66.0878L449.169 70.1415L455.206 68.5652L461.447 65.9751L465.028 68.1146L467.484 71.0422H471.679L472.907 75.8847L477 77.7988Z" fill="#75D9BC" stroke="white"/>
</svg>
