<svg width="13" height="17" viewBox="0 0 13 17" fill="none" xmlns="http://www.w3.org/2000/svg">
<path d="M6.14645 12.8536C6.34171 13.0488 6.65829 13.0488 6.85355 12.8536L10.0355 9.67157C10.2308 9.47631 10.2308 9.15973 10.0355 8.96447C9.84027 8.7692 9.52369 8.7692 9.32843 8.96447L6.5 11.7929L3.67157 8.96447C3.47631 8.7692 3.15973 8.7692 2.96447 8.96447C2.7692 9.15973 2.7692 9.47631 2.96447 9.67157L6.14645 12.8536ZM6 0.5L6 12.5L7 12.5L7 0.5L6 0.5Z" fill="#00CFA3"/>
<path d="M13 17.5C13.5523 17.5 14 17.0523 14 16.5C14 15.9477 13.5523 15.5 13 15.5V17.5ZM0 15.5C-0.552285 15.5 -1 15.9477 -1 16.5C-1 17.0523 -0.552285 17.5 0 17.5V15.5ZM13 15.5H0V17.5H13V15.5Z" fill="#00CFA3" mask="url(#path-1-inside-1_487_103061)"/>
</svg>
