<svg width="20" height="21" version="1.1" id="Layer_1" xmlns="http://www.w3.org/2000/svg" xmlns:xlink="http://www.w3.org/1999/xlink" x="0px" y="0px"
	 viewBox="0 0 20 21" style="enable-background:new 0 0 20 21;" xml:space="preserve">
<g>
	<path class="st0" d="M0.6,19.2h2.6c0.4,0,0.6-0.3,0.6-0.6V7.2c0-0.4-0.3-0.6-0.6-0.6H0.6C0.3,6.5,0,6.8,0,7.2v11.4
		C0,18.9,0.3,19.2,0.6,19.2z" fill="#00CFA3"/>
	<path class="st0" d="M0.6,4.5h2.6c0.4,0,0.6-0.3,0.6-0.6V1.6c0-0.4-0.3-0.6-0.6-0.6H0.6C0.3,0.9,0,1.2,0,1.6v2.3
		C0,4.2,0.3,4.5,0.6,4.5z" fill="#00CFA3"/>
	<path class="st0" d="M19,7.8c-0.4-0.5-0.9-0.9-1.6-1.2c-0.7-0.3-1.5-0.5-2.4-0.5c-1.7,0-3.2,0.7-4.4,2c-0.2,0.3-0.4,0.2-0.4-0.2
		V7.2c0-0.4-0.3-0.6-0.6-0.6H7.2c-0.4,0-0.6,0.3-0.6,0.6v11.4c0,0.4,0.3,0.6,0.6,0.6h2.6c0.4,0,0.6-0.3,0.6-0.6v-4
		c0-1.6,0.1-2.8,0.3-3.4c0.2-0.6,0.6-1.1,1.1-1.5c0.5-0.4,1.1-0.6,1.8-0.6c0.5,0,1,0.1,1.4,0.4c0.4,0.3,0.6,0.6,0.8,1.1
		c0.2,0.5,0.2,1.5,0.2,3.1v4.8c0,0.4,0.3,0.6,0.6,0.6h2.6c0.4,0,0.6-0.3,0.6-0.6v-6.4c0-1.1-0.1-2-0.2-2.6C19.6,8.9,19.4,8.3,19,7.8
		z" fill="#00CFA3"/>
</g>
</svg>
